<svg width="18" height="18" viewBox="0 0 18 18" fill="none" xmlns="http://www.w3.org/2000/svg">
<path fillRule="evenodd" clip-rule="evenodd" d="M2.90901 1.40901C3.33097 0.987053 3.90326 0.75 4.5 0.75H10.5C10.6989 0.75 10.8897 0.829018 11.0303 0.96967L15.5303 5.46967C15.671 5.61032 15.75 5.80109 15.75 6V15C15.75 15.5967 15.5129 16.169 15.091 16.591C14.669 17.0129 14.0967 17.25 13.5 17.25H4.5C3.90326 17.25 3.33097 17.0129 2.90901 16.591C2.48705 16.169 2.25 15.5967 2.25 15V3C2.25 2.40326 2.48705 1.83097 2.90901 1.40901ZM4.5 2.25C4.30109 2.25 4.11032 2.32902 3.96967 2.46967C3.82902 2.61032 3.75 2.80109 3.75 3V15C3.75 15.1989 3.82902 15.3897 3.96967 15.5303C4.11032 15.671 4.30109 15.75 4.5 15.75H13.5C13.6989 15.75 13.8897 15.671 14.0303 15.5303C14.171 15.3897 14.25 15.1989 14.25 15V6.31066L10.1893 2.25H4.5Z" fill="#637381"/>
<path fillRule="evenodd" clip-rule="evenodd" d="M10.5 0.75C10.9142 0.75 11.25 1.08579 11.25 1.5V5.25H15C15.4142 5.25 15.75 5.58579 15.75 6C15.75 6.41421 15.4142 6.75 15 6.75H10.5C10.0858 6.75 9.75 6.41421 9.75 6V1.5C9.75 1.08579 10.0858 0.75 10.5 0.75Z" fill="#637381"/>
<path fillRule="evenodd" clip-rule="evenodd" d="M5.25 9.75C5.25 9.33579 5.58579 9 6 9H12C12.4142 9 12.75 9.33579 12.75 9.75C12.75 10.1642 12.4142 10.5 12 10.5H6C5.58579 10.5 5.25 10.1642 5.25 9.75Z" fill="#637381"/>
<path fillRule="evenodd" clip-rule="evenodd" d="M5.25 12.75C5.25 12.3358 5.58579 12 6 12H12C12.4142 12 12.75 12.3358 12.75 12.75C12.75 13.1642 12.4142 13.5 12 13.5H6C5.58579 13.5 5.25 13.1642 5.25 12.75Z" fill="#637381"/>
<path fillRule="evenodd" clip-rule="evenodd" d="M5.25 6.75C5.25 6.33579 5.58579 6 6 6H7.5C7.91421 6 8.25 6.33579 8.25 6.75C8.25 7.16421 7.91421 7.5 7.5 7.5H6C5.58579 7.5 5.25 7.16421 5.25 6.75Z" fill="#637381"/>
</svg>
