<svg width="24" height="24" viewBox="0 0 24 24" fill="none" xmlns="http://www.w3.org/2000/svg">
<path d="M18.1667 12.5H18.1761M6.83333 12.5H6.84278M15.3333 12.5C15.3333 14.0188 14.0648 15.25 12.5 15.25C10.9352 15.25 9.66667 14.0188 9.66667 12.5C9.66667 10.9812 10.9352 9.75 12.5 9.75C14.0648 9.75 15.3333 10.9812 15.3333 12.5ZM5.88889 7H19.1111C20.1543 7 21 7.82081 21 8.83333V16.1667C21 17.1792 20.1543 18 19.1111 18H5.88889C4.84568 18 4 17.1792 4 16.1667V8.83333C4 7.82081 4.84568 7 5.88889 7Z" stroke="#637381" stroke-width="1.5" stroke-linecap="round" stroke-linejoin="round"/>
</svg>
