<svg width="145" height="46" viewBox="0 0 145 46" fill="none" xmlns="http://www.w3.org/2000/svg">
<path d="M0.601562 17.6475C0.601562 17.2822 0.669596 16.9134 0.805664 16.541C0.941732 16.1686 1.15299 15.8177 1.43945 15.4883C2.48503 15.9466 3.39453 16.2975 4.16797 16.541C4.94857 16.7845 5.75065 16.9062 6.57422 16.9062C6.72461 16.9062 6.87858 16.8919 7.03613 16.8633C7.20085 16.8346 7.32975 16.7952 7.42285 16.7451C7.45866 16.6663 7.4873 16.5661 7.50879 16.4443C7.53027 16.3154 7.54102 16.2116 7.54102 16.1328C7.54102 15.7819 7.37272 15.4811 7.03613 15.2305C6.69954 14.9798 6.25553 14.7292 5.7041 14.4785L5.32812 14.2959C4.25391 13.7445 3.39095 13.2503 2.73926 12.8135C2.09473 12.3695 1.54688 11.7894 1.0957 11.0732C0.651693 10.3499 0.429688 9.46549 0.429688 8.41992C0.429688 6.88737 0.855794 5.65918 1.70801 4.73535C2.56738 3.81152 3.93164 3.34961 5.80078 3.34961C7.39779 3.34961 8.66178 3.44629 9.59277 3.63965C9.97949 3.86882 10.3161 4.10872 10.6025 4.35938C10.8962 4.60286 11.1755 4.90007 11.4404 5.25098C11.4404 5.75228 11.3903 6.29655 11.29 6.88379C11.1969 7.46387 11.0645 7.9974 10.8926 8.48438C10.7279 8.97135 10.5488 9.32227 10.3555 9.53711C10.1908 9.61589 10.0081 9.67676 9.80762 9.71973C9.6071 9.75553 9.36003 9.77344 9.06641 9.77344C8.75846 9.77344 8.50781 9.75195 8.31445 9.70898C8.12109 9.66602 7.94206 9.5944 7.77734 9.49414L7.44434 7.25977C7.02897 7.14518 6.58854 7.06283 6.12305 7.0127C5.65755 6.9554 5.34245 6.93034 5.17773 6.9375C4.91276 7.05924 4.73014 7.23112 4.62988 7.45312C4.53678 7.66797 4.49023 7.92578 4.49023 8.22656C4.49023 8.54883 4.57617 8.82812 4.74805 9.06445C4.92708 9.29362 5.14193 9.4834 5.39258 9.63379C5.64323 9.78418 5.96549 9.95247 6.35938 10.1387L6.83203 10.375C7.85612 10.9121 8.66178 11.3812 9.24902 11.7822C9.83626 12.1833 10.3268 12.6917 10.7207 13.3076C11.1217 13.9163 11.3223 14.654 11.3223 15.5205C11.3223 16.5303 11.0573 17.4004 10.5273 18.1309C9.9974 18.8542 9.31706 19.377 8.48633 19.6992C8.03516 19.8783 7.53743 20.0072 6.99316 20.0859C6.44889 20.1647 5.81868 20.2041 5.10254 20.2041C4.61556 20.2041 4.09277 20.1432 3.53418 20.0215C2.97559 19.8997 2.43132 19.6849 1.90137 19.377C1.37858 19.069 0.959635 18.6572 0.644531 18.1416C0.615885 18.0055 0.601562 17.8408 0.601562 17.6475ZM12.6436 13.6514C12.6436 12.3551 12.8512 11.2308 13.2666 10.2783C13.682 9.32585 14.3193 8.58822 15.1787 8.06543C16.0381 7.53548 17.1159 7.27051 18.4121 7.27051C19.8444 7.27051 20.9688 7.53906 21.7852 8.07617C22.6016 8.60612 23.1709 9.34375 23.4932 10.2891C23.8226 11.2344 23.9873 12.391 23.9873 13.7588C23.9873 14.9977 23.7689 16.1042 23.332 17.0781C22.9023 18.0449 22.2507 18.8112 21.377 19.377C20.5104 19.9355 19.4469 20.2148 18.1865 20.2148C16.2386 20.2148 14.8278 19.6169 13.9541 18.4209C13.0804 17.2178 12.6436 15.6279 12.6436 13.6514ZM18.627 17.0674C18.9922 17.0674 19.2142 17.0387 19.293 16.9814C19.4577 16.695 19.583 16.2904 19.6689 15.7676C19.7549 15.2448 19.7979 14.679 19.7979 14.0703C19.7979 13.5117 19.762 12.9889 19.6904 12.502C19.6188 12.0078 19.5186 11.6211 19.3896 11.3418C19.3109 11.2487 19.1533 11.1807 18.917 11.1377C18.6807 11.0876 18.4229 11.0625 18.1436 11.0625C17.7783 11.0625 17.5277 11.1019 17.3916 11.1807C17.0335 11.7965 16.8545 12.6523 16.8545 13.748C16.8545 14.2637 16.8939 14.79 16.9727 15.3271C17.0514 15.8643 17.1517 16.3512 17.2734 16.7881C17.3594 16.8812 17.5348 16.9528 17.7998 17.0029C18.0648 17.0459 18.3405 17.0674 18.627 17.0674ZM31.7217 21.708C32.2015 21.708 32.6169 21.6543 32.9678 21.5469C33.0752 21.4395 33.1504 21.3141 33.1934 21.1709C33.2363 21.0348 33.2578 20.9059 33.2578 20.7842C33.2578 20.6553 33.2471 20.5586 33.2256 20.4941C33.2041 20.4368 33.1683 20.3831 33.1182 20.333C32.8174 20.2829 32.4629 20.2471 32.0547 20.2256C31.6536 20.2113 31.4137 20.2005 31.335 20.1934C30.3395 20.1504 29.5303 20.0788 28.9072 19.9785C28.2842 19.8711 27.7507 19.6419 27.3066 19.291C26.8626 18.9329 26.6406 18.3958 26.6406 17.6797C26.6406 17.293 26.766 16.9313 27.0166 16.5947C27.2673 16.251 27.5931 15.9502 27.9941 15.6924C27.1777 15.3558 26.5225 14.8509 26.0283 14.1777C25.5413 13.4974 25.2979 12.6201 25.2979 11.5459C25.2979 10.4788 25.57 9.62305 26.1143 8.97852C26.6657 8.32682 27.3424 7.86849 28.1445 7.60352C28.9466 7.33854 29.763 7.20605 30.5938 7.20605C31.1165 7.20605 31.6286 7.25618 32.1299 7.35645C32.6312 7.45671 33.0967 7.59993 33.5264 7.78613L33.0645 5.05762C33.5013 4.79264 34.0456 4.66016 34.6973 4.66016C35.1699 4.66016 35.6104 4.73893 36.0186 4.89648C36.4268 5.05404 36.7383 5.27962 36.9531 5.57324C36.9674 5.64486 36.9746 5.75944 36.9746 5.91699C36.9746 6.50423 36.8672 7.15951 36.6523 7.88281C36.4447 8.59896 36.083 9.17546 35.5674 9.6123C35.8252 10.1279 35.9541 10.6829 35.9541 11.2773C35.9541 12.151 35.7858 12.9567 35.4492 13.6943C35.1198 14.432 34.5684 15.0335 33.7949 15.499C33.0215 15.9574 32.0153 16.1865 30.7764 16.1865C30.4183 16.1865 30.0459 16.165 29.6592 16.1221C29.6377 16.4801 29.7236 16.8382 29.917 17.1963C30.8838 17.0101 31.6644 16.9134 32.2588 16.9062L32.9893 16.8955C33.9775 16.8955 34.7259 16.9564 35.2344 17.0781C35.793 17.2142 36.2083 17.5221 36.4805 18.002C36.7598 18.4818 36.8994 19.0654 36.8994 19.7529C36.8994 20.8271 36.57 21.7295 35.9111 22.46C35.2594 23.1976 34.4108 23.7454 33.3652 24.1035C32.3268 24.4616 31.224 24.6406 30.0566 24.6406C28.9753 24.6406 28.012 24.458 27.167 24.0928C26.3219 23.7275 25.7884 23.0579 25.5664 22.084C25.8027 21.2604 26.2539 20.6374 26.9199 20.2148C27.8151 20.752 28.6709 21.1351 29.4873 21.3643C30.3109 21.5934 31.0557 21.708 31.7217 21.708ZM31.0664 13.5332C31.582 13.5332 31.8828 13.501 31.9688 13.4365C32.1621 13.0498 32.2588 12.6523 32.2588 12.2441C32.2588 11.8216 32.1621 11.4242 31.9688 11.0518C31.8757 10.973 31.668 10.9121 31.3457 10.8691C31.0306 10.8262 30.6868 10.8047 30.3145 10.8047C29.849 10.8047 29.5374 10.8333 29.3799 10.8906C29.1579 11.2845 29.0469 11.682 29.0469 12.083C29.0469 12.4912 29.1507 12.8779 29.3584 13.2432C29.516 13.3434 29.7523 13.4186 30.0674 13.4688C30.3896 13.5117 30.7227 13.5332 31.0664 13.5332ZM38.9941 2.83398C39.2806 2.76237 39.585 2.72656 39.9072 2.72656C40.6019 2.72656 41.2035 2.89128 41.7119 3.2207C42.2275 3.55013 42.5391 4.02637 42.6465 4.64941C42.4245 5.15788 42.0951 5.72363 41.6582 6.34668C41.2214 6.96257 40.7451 7.54264 40.2295 8.08691C39.721 8.63118 39.2448 9.05371 38.8008 9.35449L37.3828 8.45215L38.9941 2.83398ZM43.71 5.94922C43.6025 5.51237 43.5309 5.15072 43.4951 4.86426C43.4593 4.57064 43.445 4.23405 43.4521 3.85449C43.6025 3.66113 43.8353 3.46777 44.1504 3.27441C44.4727 3.07389 44.8451 2.9056 45.2676 2.76953C45.6973 2.63346 46.1413 2.56543 46.5996 2.56543C47.4948 2.56543 48.1823 2.79102 48.6621 3.24219C49.1419 3.69336 49.3818 4.35938 49.3818 5.24023C49.3818 5.87044 49.3281 6.88379 49.2207 8.28027C49.1133 9.67676 48.9593 11.1628 48.7588 12.7383C48.5583 14.3066 48.3291 15.6781 48.0713 16.8525L48.0928 16.874L49.6826 16.208C50.2412 16.6878 50.5671 17.3252 50.6602 18.1201C50.6602 18.1702 50.499 18.3779 50.1768 18.7432C49.8545 19.1012 49.4284 19.4378 48.8984 19.7529C48.3757 20.0609 47.7741 20.2148 47.0938 20.2148C46.3848 20.2148 45.8083 20.0179 45.3643 19.624C44.9274 19.2301 44.7197 18.557 44.7412 17.6045L44.7627 15.6709C44.7699 13.8376 44.7878 12.1868 44.8164 10.7188C44.8522 9.25065 44.9238 7.736 45.0312 6.1748L43.71 5.94922ZM51.5303 13.6514C51.5303 12.3551 51.738 11.2308 52.1533 10.2783C52.5687 9.32585 53.2061 8.58822 54.0654 8.06543C54.9248 7.53548 56.0026 7.27051 57.2988 7.27051C58.7311 7.27051 59.8555 7.53906 60.6719 8.07617C61.4883 8.60612 62.0576 9.34375 62.3799 10.2891C62.7093 11.2344 62.874 12.391 62.874 13.7588C62.874 14.9977 62.6556 16.1042 62.2188 17.0781C61.7891 18.0449 61.1374 18.8112 60.2637 19.377C59.3971 19.9355 58.3337 20.2148 57.0732 20.2148C55.1253 20.2148 53.7145 19.6169 52.8408 18.4209C51.9671 17.2178 51.5303 15.6279 51.5303 13.6514ZM57.5137 17.0674C57.8789 17.0674 58.1009 17.0387 58.1797 16.9814C58.3444 16.695 58.4697 16.2904 58.5557 15.7676C58.6416 15.2448 58.6846 14.679 58.6846 14.0703C58.6846 13.5117 58.6488 12.9889 58.5771 12.502C58.5055 12.0078 58.4053 11.6211 58.2764 11.3418C58.1976 11.2487 58.04 11.1807 57.8037 11.1377C57.5674 11.0876 57.3096 11.0625 57.0303 11.0625C56.665 11.0625 56.4144 11.1019 56.2783 11.1807C55.9202 11.7965 55.7412 12.6523 55.7412 13.748C55.7412 14.2637 55.7806 14.79 55.8594 15.3271C55.9382 15.8643 56.0384 16.3512 56.1602 16.7881C56.2461 16.8812 56.4215 16.9528 56.6865 17.0029C56.9515 17.0459 57.2272 17.0674 57.5137 17.0674ZM65.334 16.2617C65.334 15.0944 65.3483 14.2135 65.377 13.6191C65.4056 13.0176 65.4808 12.1367 65.6025 10.9766L64.3672 10.8154C64.2168 10.3499 64.1165 9.93457 64.0664 9.56934C64.0234 9.2041 64.002 8.73145 64.002 8.15137C64.1165 8.05111 64.3063 7.93294 64.5713 7.79688C64.8434 7.65365 65.1621 7.5319 65.5273 7.43164C65.8997 7.32422 66.2757 7.27051 66.6553 7.27051C67.5218 7.27051 68.1341 7.45671 68.4922 7.8291C68.8574 8.2015 69.04 8.76009 69.04 9.50488C69.04 9.92025 68.9792 10.4824 68.8574 11.1914C68.6569 12.3301 68.5566 12.9281 68.5566 12.9854C68.5566 13.0212 68.5817 13.057 68.6318 13.0928C68.682 13.1214 68.7357 13.1357 68.793 13.1357C68.8574 13.1357 68.9004 13.1107 68.9219 13.0605C68.9147 13.0892 68.9971 12.7275 69.1689 11.9756C69.3766 10.9873 69.5879 10.1816 69.8027 9.55859C70.0247 8.93555 70.3757 8.40202 70.8555 7.95801C71.3353 7.514 71.987 7.29199 72.8105 7.29199C73.8275 7.29199 74.5615 7.58561 75.0127 8.17285C75.4639 8.75293 75.6895 9.52637 75.6895 10.4932C75.6895 11.2594 75.5605 12.1117 75.3027 13.0498C75.3027 13.0856 75.3278 13.1214 75.3779 13.1572C75.4281 13.1859 75.4818 13.2002 75.5391 13.2002C75.6035 13.2002 75.6465 13.1751 75.668 13.125L75.8184 12.5234C76.0762 11.4635 76.3304 10.5827 76.5811 9.88086C76.8389 9.17904 77.222 8.57389 77.7305 8.06543C78.2461 7.5498 78.9157 7.29199 79.7393 7.29199C80.8206 7.29199 81.5977 7.63932 82.0703 8.33398C82.5501 9.02865 82.79 9.90234 82.79 10.9551C82.79 11.6999 82.7184 12.4482 82.5752 13.2002C82.4391 13.9521 82.2923 14.5824 82.1348 15.0908C81.9844 15.5993 81.7982 16.1865 81.5762 16.8525L81.5977 16.874L83.1875 16.208C83.7461 16.6878 84.0719 17.3252 84.165 18.1201C84.165 18.1702 84.0039 18.3779 83.6816 18.7432C83.3594 19.1012 82.9333 19.4378 82.4033 19.7529C81.8805 20.0609 81.279 20.2148 80.5986 20.2148C79.9183 20.2148 79.3633 20.0322 78.9336 19.667C78.5039 19.3018 78.2891 18.6787 78.2891 17.7979C78.2891 16.8167 78.307 15.8105 78.3428 14.7793C78.3857 13.7409 78.4466 12.8099 78.5254 11.9863C78.4036 11.8861 78.2354 11.8324 78.0205 11.8252C77.8057 12.0329 77.5371 12.4876 77.2148 13.1895C76.8926 13.8841 76.5954 14.6289 76.3232 15.4238C76.0511 16.2116 75.8792 16.8275 75.8076 17.2715C75.9079 17.9733 76.0618 18.668 76.2695 19.3555C76.1406 19.599 75.8757 19.8031 75.4746 19.9678C75.0736 20.1325 74.5794 20.2148 73.9922 20.2148C73.4622 20.2148 73.0469 20.1719 72.7461 20.0859C72.4453 20 72.2376 19.9105 72.123 19.8174C72.0156 19.7243 71.9619 19.6634 71.9619 19.6348C71.9548 19.5703 71.9368 19.402 71.9082 19.1299C71.8796 18.8506 71.8509 18.4639 71.8223 17.9697C71.7936 17.4684 71.7793 16.8991 71.7793 16.2617C71.7793 15.653 71.8258 14.8903 71.9189 13.9736C71.9261 13.859 71.9476 13.5869 71.9834 13.1572C72.0192 12.7275 72.0371 12.3372 72.0371 11.9863C71.9154 11.8861 71.7471 11.8324 71.5322 11.8252C71.4105 11.9183 71.0703 12.5127 70.5117 13.6084C69.9531 14.7041 69.5807 15.4775 69.3945 15.9287C69.3802 16.029 69.373 16.1257 69.373 16.2188C69.373 16.5768 69.4268 17.0602 69.5342 17.6689C69.6416 18.2705 69.7741 18.8327 69.9316 19.3555C69.8027 19.599 69.5378 19.8031 69.1367 19.9678C68.7357 20.1325 68.2415 20.2148 67.6543 20.2148C67.1243 20.2148 66.6982 20.1719 66.376 20.0859C66.0609 20 65.8389 19.9105 65.71 19.8174C65.5811 19.7171 65.5166 19.6562 65.5166 19.6348C65.5094 19.5703 65.4915 19.402 65.4629 19.1299C65.4342 18.8506 65.4056 18.4639 65.377 17.9697C65.3483 17.4684 65.334 16.8991 65.334 16.2617ZM85.5078 13.0176C85.5078 9.69466 85.5723 7.41016 85.7012 6.16406L84.4873 5.94922C84.3154 5.29036 84.2295 4.58138 84.2295 3.82227C84.3369 3.6862 84.5374 3.5179 84.8311 3.31738C85.1247 3.11686 85.4648 2.94141 85.8516 2.79102C86.2454 2.64062 86.6357 2.56543 87.0225 2.56543C87.9033 2.56543 88.5586 2.79102 88.9883 3.24219C89.418 3.69336 89.6328 4.38444 89.6328 5.31543C89.6328 5.72363 89.597 6.38249 89.5254 7.29199C89.4538 8.19434 89.3499 9.16471 89.2139 10.2031C89.0778 11.2344 88.9202 12.1546 88.7412 12.9639C88.7412 13.0068 88.7663 13.0462 88.8164 13.082C88.8665 13.1178 88.9202 13.1357 88.9775 13.1357C89.042 13.1357 89.085 13.1107 89.1064 13.0605C89.3929 11.9219 89.6794 10.9694 89.9658 10.2031C90.2523 9.43685 90.6855 8.75651 91.2656 8.16211C91.8457 7.56771 92.5977 7.27051 93.5215 7.27051C94.6673 7.27051 95.4909 7.62142 95.9922 8.32324C96.4935 9.0179 96.7441 9.89518 96.7441 10.9551C96.7441 11.9004 96.6331 12.8135 96.4111 13.6943C96.1891 14.568 95.9134 15.4811 95.584 16.4336C95.5983 16.3978 95.5482 16.5374 95.4336 16.8525L95.4551 16.874L97.0449 16.208C97.6035 16.6878 97.9294 17.3252 98.0225 18.1201C98.0225 18.1702 97.8613 18.3779 97.5391 18.7432C97.2168 19.1012 96.7907 19.4378 96.2607 19.7529C95.738 20.0609 95.1364 20.2148 94.4561 20.2148C93.7757 20.2148 93.2207 20.0322 92.791 19.667C92.3613 19.3018 92.1465 18.6787 92.1465 17.7979C92.1465 17.096 92.1751 16.1579 92.2324 14.9834C92.2897 13.8089 92.347 12.8636 92.4043 12.1475C92.2181 11.9469 91.9889 11.8395 91.7168 11.8252C91.4661 12.1475 91.0973 12.792 90.6104 13.7588C90.1234 14.7256 89.7796 15.4489 89.5791 15.9287C89.5648 16.029 89.5576 16.1257 89.5576 16.2188C89.5576 16.5768 89.6113 17.0602 89.7188 17.6689C89.8262 18.2705 89.9587 18.8327 90.1162 19.3555C89.9873 19.599 89.7223 19.8031 89.3213 19.9678C88.9202 20.1325 88.4261 20.2148 87.8389 20.2148C87.3089 20.2148 86.8828 20.1719 86.5605 20.0859C86.2454 20 86.0234 19.9105 85.8945 19.8174C85.7656 19.7171 85.7012 19.6562 85.7012 19.6348C85.694 19.5703 85.6761 19.402 85.6475 19.1299C85.6188 18.8506 85.5902 18.4639 85.5615 17.9697C85.5329 17.4684 85.5186 16.8991 85.5186 16.2617L85.5078 13.0176ZM102.276 12.9209C102.699 12.9209 103.164 12.9639 103.673 13.0498C104.188 13.1357 104.661 13.2396 105.091 13.3613V13.0283C105.091 12.8063 105.084 12.5592 105.069 12.2871C105.062 12.015 105.048 11.8359 105.026 11.75C104.962 11.6283 104.776 11.5029 104.468 11.374C104.167 11.2451 103.673 11.1807 102.985 11.1807C102.563 11.1807 102.126 11.2344 101.675 11.3418C101.231 11.4421 100.737 11.5781 100.192 11.75C99.8988 11.263 99.6624 10.8011 99.4834 10.3643C99.3115 9.92025 99.2256 9.47624 99.2256 9.03223C99.2256 8.89616 99.2363 8.76009 99.2578 8.62402C100.418 7.72168 101.918 7.27051 103.759 7.27051C104.776 7.27051 105.678 7.38509 106.466 7.61426C107.254 7.84342 107.902 8.28743 108.41 8.94629C108.919 9.60514 109.173 10.5397 109.173 11.75C109.173 12.9316 109.033 14.0775 108.754 15.1875C108.482 16.2904 108.342 16.8525 108.335 16.874L109.893 16.208C110.1 16.43 110.283 16.7021 110.44 17.0244C110.605 17.3395 110.709 17.7048 110.752 18.1201C110.652 18.335 110.433 18.6107 110.097 18.9473C109.76 19.2767 109.348 19.5703 108.861 19.8281C108.374 20.0859 107.866 20.2148 107.336 20.2148C106.742 20.2148 106.29 20.0394 105.982 19.6885C105.682 19.3376 105.531 18.8828 105.531 18.3242C105.531 18.0091 105.578 17.6904 105.671 17.3682L105.349 17.2715C105.148 18.403 104.722 19.1764 104.07 19.5918C103.419 20.0072 102.699 20.2148 101.911 20.2148C101.396 20.2148 100.898 20.0716 100.418 19.7852C99.9382 19.4915 99.5479 19.069 99.2471 18.5176C98.9463 17.959 98.7959 17.3073 98.7959 16.5625C98.7959 15.3737 99.0931 14.4714 99.6875 13.8555C100.282 13.2324 101.145 12.9209 102.276 12.9209ZM103.501 17.0137C103.68 16.9779 103.891 16.8776 104.135 16.7129C104.385 16.5482 104.607 16.3512 104.801 16.1221C104.994 15.8929 105.109 15.6745 105.145 15.4668L105.08 15.209C104.701 15.1589 104.296 15.1338 103.866 15.1338C103.501 15.1338 103.25 15.1624 103.114 15.2197C102.885 15.4775 102.771 15.764 102.771 16.0791C102.771 16.3083 102.828 16.516 102.942 16.7021C103.064 16.8883 103.25 16.9922 103.501 17.0137ZM115.092 18.6572C114.956 18.1273 114.701 17.361 114.329 16.3584C113.957 15.3486 113.566 14.3783 113.158 13.4473C112.75 12.5163 112.428 11.8753 112.191 11.5244L111.203 11.3525C111.103 11.0732 111.024 10.7653 110.967 10.4287C110.917 10.085 110.874 9.6875 110.838 9.23633C110.96 8.89974 111.146 8.58105 111.396 8.28027C111.647 7.97949 111.948 7.736 112.299 7.5498C112.657 7.36361 113.044 7.27051 113.459 7.27051C114.139 7.27051 114.701 7.46387 115.146 7.85059C115.597 8.23014 115.944 8.70996 116.188 9.29004C116.438 9.86296 116.657 10.5397 116.843 11.3203C117.222 12.8314 117.466 14.7041 117.573 16.9385L117.81 16.8955C118.089 16.2725 118.325 15.3809 118.519 14.2207C118.719 13.0605 118.826 11.9469 118.841 10.8799L117.498 10.6758C117.34 10.0742 117.262 9.36882 117.262 8.55957C117.419 8.36621 117.645 8.17285 117.938 7.97949C118.239 7.77897 118.594 7.61068 119.002 7.47461C119.41 7.33854 119.843 7.27051 120.302 7.27051C122.149 7.27051 123.073 8.19792 123.073 10.0527C123.073 11.5137 122.808 12.9316 122.278 14.3066C121.756 15.6816 120.968 16.9242 119.915 18.0342C118.862 19.1442 117.58 20.0179 116.069 20.6553L116.155 21.0098C116.349 21.0312 116.538 21.042 116.725 21.042C117.333 21.042 118.067 20.9417 118.927 20.7412C119.414 21.2855 119.657 21.8799 119.657 22.5244C119.657 22.7178 119.636 22.9147 119.593 23.1152C119.163 23.5306 118.626 23.8887 117.981 24.1895C117.337 24.4902 116.628 24.6406 115.854 24.6406C114.73 24.6406 113.821 24.3864 113.126 23.8779C112.431 23.3695 112.084 22.596 112.084 21.5576C112.084 21.0921 112.224 20.6839 112.503 20.333C112.789 19.9893 113.119 19.71 113.491 19.4951C113.871 19.2731 114.404 18.9938 115.092 18.6572ZM124.233 13.6514C124.233 12.3551 124.441 11.2308 124.856 10.2783C125.272 9.32585 125.909 8.58822 126.769 8.06543C127.628 7.53548 128.706 7.27051 130.002 7.27051C131.434 7.27051 132.559 7.53906 133.375 8.07617C134.191 8.60612 134.761 9.34375 135.083 10.2891C135.412 11.2344 135.577 12.391 135.577 13.7588C135.577 14.9977 135.359 16.1042 134.922 17.0781C134.492 18.0449 133.84 18.8112 132.967 19.377C132.1 19.9355 131.037 20.2148 129.776 20.2148C127.828 20.2148 126.418 19.6169 125.544 18.4209C124.67 17.2178 124.233 15.6279 124.233 13.6514ZM130.217 17.0674C130.582 17.0674 130.804 17.0387 130.883 16.9814C131.048 16.695 131.173 16.2904 131.259 15.7676C131.345 15.2448 131.388 14.679 131.388 14.0703C131.388 13.5117 131.352 12.9889 131.28 12.502C131.209 12.0078 131.108 11.6211 130.979 11.3418C130.901 11.2487 130.743 11.1807 130.507 11.1377C130.271 11.0876 130.013 11.0625 129.733 11.0625C129.368 11.0625 129.118 11.1019 128.981 11.1807C128.623 11.7965 128.444 12.6523 128.444 13.748C128.444 14.2637 128.484 14.79 128.562 15.3271C128.641 15.8643 128.742 16.3512 128.863 16.7881C128.949 16.8812 129.125 16.9528 129.39 17.0029C129.655 17.0459 129.93 17.0674 130.217 17.0674ZM137.897 14.0703C137.897 12.903 137.915 11.8395 137.951 10.8799L136.78 10.6758C136.687 10.3177 136.623 10.0026 136.587 9.73047C136.551 9.45833 136.533 9.16829 136.533 8.86035L136.555 8.64551C136.576 8.54525 136.587 8.46289 136.587 8.39844L138.145 8.05469C138.18 7.61068 138.263 7.10938 138.392 6.55078C138.521 5.99219 138.657 5.5804 138.8 5.31543C139.029 5.14355 139.305 5.01465 139.627 4.92871C139.949 4.84277 140.297 4.7998 140.669 4.7998C140.984 4.7998 141.288 4.83203 141.582 4.89648C141.883 4.95378 142.144 5.03255 142.366 5.13281C142.388 5.3763 142.398 5.6556 142.398 5.9707C142.398 6.48633 142.373 7.06999 142.323 7.72168L144.214 7.37793C144.479 7.83626 144.611 8.33398 144.611 8.87109C144.611 9.24349 144.565 9.58008 144.472 9.88086C144.386 10.1816 144.264 10.5218 144.106 10.9014C143.634 10.9801 142.986 11.0303 142.162 11.0518C142.062 12.2191 141.84 13.9342 141.496 16.1973L141.442 16.5625L141.464 16.584L143.988 15.7998C144.511 16.2367 144.83 16.9098 144.944 17.8193C144.944 17.8695 144.712 18.1058 144.246 18.5283C143.788 18.9437 143.211 19.3304 142.517 19.6885C141.822 20.0394 141.066 20.2148 140.25 20.2148C138.825 20.2148 138.066 19.3447 137.973 17.6045C137.923 16.7236 137.897 15.5456 137.897 14.0703Z" fill="#259AE6"/>
<path d="M0.828 28.936H1.68V36.256H4.128V37H0.828V28.936ZM14.3836 37L13.8916 34.744H11.7316L11.2396 37H10.3876L12.2116 28.936H13.4116L15.2356 37H14.3836ZM11.8876 34H13.7236L12.7996 29.764L11.8876 34ZM26.2813 30.76V31.444C26.2813 32.212 25.9853 32.708 25.3933 32.932C26.0333 33.148 26.3533 33.656 26.3533 34.456V35.176C26.3533 35.744 26.1893 36.192 25.8613 36.52C25.5413 36.84 25.0613 37 24.4213 37H22.2733V28.936H24.3493C24.9893 28.936 25.4693 29.1 25.7893 29.428C26.1173 29.748 26.2813 30.192 26.2813 30.76ZM24.2773 29.68H23.1253V32.572H24.2773C25.0453 32.572 25.4293 32.204 25.4293 31.468V30.784C25.4293 30.048 25.0453 29.68 24.2773 29.68ZM25.5013 35.152V34.432C25.5013 33.696 25.1173 33.328 24.3493 33.328H23.1253V36.256H24.3493C25.1173 36.256 25.5013 35.888 25.5013 35.152ZM36.9826 30.736C36.9826 29.976 36.5866 29.596 35.7946 29.596C35.0106 29.596 34.6186 29.976 34.6186 30.736V35.2C34.6186 35.968 35.0106 36.352 35.7946 36.352C36.5866 36.352 36.9826 35.968 36.9826 35.2V30.736ZM33.7666 30.724C33.7666 30.156 33.9386 29.696 34.2826 29.344C34.6266 28.992 35.1306 28.816 35.7946 28.816C36.4666 28.816 36.9746 28.992 37.3186 29.344C37.6626 29.696 37.8346 30.156 37.8346 30.724V35.224C37.8346 35.792 37.6626 36.252 37.3186 36.604C36.9746 36.948 36.4666 37.12 35.7946 37.12C35.1226 37.12 34.6146 36.948 34.2706 36.604C33.9346 36.252 33.7666 35.792 33.7666 35.224V30.724ZM47.411 33.76H46.223V37H45.371V28.936H47.327C47.967 28.936 48.451 29.1 48.779 29.428C49.107 29.748 49.271 30.188 49.271 30.748V31.936C49.271 32.8 48.927 33.36 48.239 33.616L49.523 37H48.587L47.411 33.76ZM46.223 33.016H47.291C48.043 33.016 48.419 32.652 48.419 31.924V30.784C48.419 30.056 48.043 29.692 47.291 29.692H46.223V33.016ZM60.2273 37L59.7353 34.744H57.5753L57.0833 37H56.2313L58.0553 28.936H59.2553L61.0793 37H60.2273ZM57.7313 34H59.5673L58.6433 29.764L57.7313 34ZM71.3811 28.936V29.692H69.8211V37H68.9571V29.692H67.3971V28.936H71.3811ZM81.4084 30.736C81.4084 29.976 81.0124 29.596 80.2204 29.596C79.4364 29.596 79.0444 29.976 79.0444 30.736V35.2C79.0444 35.968 79.4364 36.352 80.2204 36.352C81.0124 36.352 81.4084 35.968 81.4084 35.2V30.736ZM78.1924 30.724C78.1924 30.156 78.3644 29.696 78.7084 29.344C79.0524 28.992 79.5564 28.816 80.2204 28.816C80.8924 28.816 81.4004 28.992 81.7444 29.344C82.0884 29.696 82.2604 30.156 82.2604 30.724V35.224C82.2604 35.792 82.0884 36.252 81.7444 36.604C81.4004 36.948 80.8924 37.12 80.2204 37.12C79.5484 37.12 79.0404 36.948 78.6964 36.604C78.3604 36.252 78.1924 35.792 78.1924 35.224V30.724ZM91.8368 33.76H90.6488V37H89.7968V28.936H91.7528C92.3928 28.936 92.8768 29.1 93.2048 29.428C93.5328 29.748 93.6968 30.188 93.6968 30.748V31.936C93.6968 32.8 93.3528 33.36 92.6648 33.616L93.9488 37H93.0128L91.8368 33.76ZM90.6488 33.016H91.7168C92.4688 33.016 92.8448 32.652 92.8448 31.924V30.784C92.8448 30.056 92.4688 29.692 91.7168 29.692H90.6488V33.016ZM101.281 28.936H102.133V37H101.281V28.936ZM111.841 37H110.989V34.276L109.009 28.936H109.885L110.701 31.132C110.733 31.22 110.977 31.936 111.433 33.28C111.729 32.36 112.237 30.912 112.957 28.936H113.821L111.841 34.276V37ZM124.071 37L123.579 34.744H121.419L120.927 37H120.075L121.899 28.936H123.099L124.923 37H124.071ZM121.575 34H123.411L122.487 29.764L121.575 34ZM131.469 30.568C131.469 30.04 131.645 29.628 131.997 29.332C132.349 29.028 132.841 28.876 133.473 28.876C134.113 28.876 134.653 28.944 135.093 29.08V29.896C134.677 29.744 134.169 29.668 133.569 29.668C132.745 29.668 132.333 29.98 132.333 30.604V31.18C132.333 31.46 132.385 31.68 132.489 31.84C132.601 32 132.785 32.152 133.041 32.296L134.433 33.076C135.081 33.428 135.405 33.96 135.405 34.672V35.32C135.405 35.872 135.217 36.3 134.841 36.604C134.465 36.908 133.921 37.06 133.209 37.06C132.505 37.06 131.945 36.98 131.529 36.82V36.004C132.001 36.18 132.537 36.268 133.137 36.268C134.081 36.268 134.553 35.936 134.553 35.272V34.768C134.553 34.504 134.505 34.296 134.409 34.144C134.313 33.992 134.141 33.848 133.893 33.712L132.513 32.956C131.817 32.58 131.469 32.02 131.469 31.276V30.568ZM142.613 28.936H143.465V37H142.613V28.936Z" fill="#259AE6"/>
</svg>
